<?xml version="1.0" encoding="UTF-8"?> <svg xmlns="http://www.w3.org/2000/svg" width="17" height="11" viewBox="0 0 17 11" fill="none"> <path d="M3.83333 1C3.67857 1 3.52687 1.0431 3.39522 1.12446C3.26358 1.20582 3.15719 1.32223 3.08798 1.46066C3.01877 1.59908 2.98947 1.75404 3.00337 1.90817C3.01727 2.06231 3.07381 2.20953 3.16667 2.33333L8.16667 9C8.24429 9.1035 8.34494 9.1875 8.46066 9.24536C8.57637 9.30321 8.70396 9.33333 8.83333 9.33333C8.9627 9.33333 9.0903 9.30321 9.20601 9.24536C9.32172 9.1875 9.42238 9.1035 9.5 9L14.5 2.33333C14.5929 2.20953 14.6494 2.06231 14.6633 1.90817C14.6772 1.75404 14.6479 1.59908 14.5787 1.46066C14.5095 1.32223 14.4031 1.20582 14.2714 1.12446C14.1398 1.0431 13.9881 1 13.8333 1H3.83333Z" fill="#181A4B"></path> </svg> 