<?xml version="1.0" encoding="UTF-8"?> <svg xmlns="http://www.w3.org/2000/svg" width="130" height="38" viewBox="0 0 130 38" fill="none"> <path d="M11.44 26.5241C11.7682 26.5241 12.0343 26.2519 12.0343 25.9161C12.0343 25.5803 11.7682 25.3081 11.44 25.3081C11.1118 25.3081 10.8457 25.5803 10.8457 25.9161C10.8457 26.2519 11.1118 26.5241 11.44 26.5241Z" fill="#282828"></path> <path d="M42.7642 26.6633C43.0924 26.6633 43.3585 26.3911 43.3585 26.0553C43.3585 25.7195 43.0924 25.4473 42.7642 25.4473C42.436 25.4473 42.1699 25.7195 42.1699 26.0553C42.1699 26.3911 42.436 26.6633 42.7642 26.6633Z" fill="#282828"></path> <path d="M51.9751 26.6633C52.3034 26.6633 52.5694 26.3911 52.5694 26.0553C52.5694 25.7195 52.3034 25.4473 51.9751 25.4473C51.6469 25.4473 51.3809 25.7195 51.3809 26.0553C51.3809 26.3911 51.6469 26.6633 51.9751 26.6633Z" fill="#282828"></path> <path d="M75.2505 26.5241C75.5788 26.5241 75.8448 26.2519 75.8448 25.9161C75.8448 25.5803 75.5788 25.3081 75.2505 25.3081C74.9223 25.3081 74.6562 25.5803 74.6562 25.9161C74.6562 26.2519 74.9223 26.5241 75.2505 26.5241Z" fill="#282828"></path> <path d="M4.95312 31.1852C5.74551 30.0579 5.74551 30.0579 8.24646 29.5892C8.41979 28.3226 7.57789 27.9426 5.6217 28.5126C5.34932 28.1579 5.33693 27.8286 5.83217 27.7399C6.47239 27.5833 7.13081 27.5194 7.78836 27.5499C8.70542 27.6688 9.36693 28.5077 9.28646 29.4499C9.28646 30.7166 9.28646 31.9072 9.28646 33.1739C8.86551 33.2499 8.40741 33.4146 8.40741 32.6292C8.32471 32.6571 8.24572 32.6955 8.17217 32.7432C7.44925 33.5552 6.21982 33.6139 5.4262 32.8743C5.22377 32.6857 5.06257 32.4554 4.95312 32.1986V31.1852ZM8.2836 30.2859C7.7636 30.3746 7.31789 30.4126 6.87217 30.5266C6.42646 30.6406 5.93122 30.9952 5.98074 31.5779C6.01009 31.9405 6.19048 32.2728 6.47598 32.4899C6.95352 32.7606 7.55077 32.6552 7.91217 32.2366C8.44455 31.7299 8.33313 31.0712 8.25884 30.2859H8.2836Z" fill="#282828"></path> <path d="M93.2752 4.75L93.9933 4.92733C97.0084 5.52672 99.1996 8.20724 99.2428 11.3493C99.3666 13.8193 99.2428 16.302 99.3171 18.7847C99.3171 20.216 99.3171 21.66 99.3171 23.1547H94.9342V16.5173H91.0466V12.2867H94.8476C95.1998 10.9855 94.4542 9.63857 93.1825 9.27821C92.9187 9.20347 92.6444 9.17561 92.3714 9.196C91.3317 9.23691 90.4733 10.0402 90.3409 11.096C90.2562 11.5724 90.2147 12.0558 90.2171 12.54C90.2171 15.808 90.2171 19.076 90.2171 22.3313V23.2053H85.8838C85.8838 23.0153 85.8838 22.8253 85.8838 22.648V12.5147C85.8547 11.2589 86.0868 10.0111 86.5647 8.854C87.4116 6.80871 89.2438 5.36674 91.3933 5.054C91.5532 5.01929 91.7105 4.97268 91.8638 4.91467L93.2752 4.75ZM10.4714 4.75C9.93899 4.91467 9.39422 5.04133 8.87422 5.244C6.53881 6.20768 5.05061 8.57267 5.15994 11.1467C5.15994 14.9467 5.15994 18.7467 5.15994 22.5467C5.15994 22.724 5.15994 22.914 5.15994 23.0913H9.49327V22.306C9.49327 18.6833 9.49327 15.0607 9.49327 11.438C9.48832 10.951 9.54651 10.4653 9.66661 9.994C9.89231 9.09378 10.7711 8.53543 11.6599 8.72733C12.5226 8.8578 13.1393 9.64921 13.0714 10.5387C13.0522 11.4409 12.3217 12.1563 11.4398 12.1367C11.4223 12.1363 11.405 12.1357 11.3876 12.1347C11.0161 12.1347 10.6447 12.1347 10.2733 12.1347V15.7573C10.929 15.7192 11.5861 15.7192 12.2418 15.7573C13.1237 15.7776 13.8225 16.5254 13.8027 17.4277C13.7981 17.6329 13.7559 17.8354 13.678 18.0247C13.4739 18.6993 12.8577 19.154 12.1676 19.1393C11.5237 19.1393 10.9295 19.1393 10.2237 19.1393V23.2053C11.8257 23.3708 13.4438 23.2203 14.9904 22.762C16.8047 22.1622 18.0858 20.5014 18.2342 18.5567C18.5419 16.6019 17.5815 14.6675 15.8571 13.7687L15.4857 13.49C16.4108 12.9418 17.0703 12.0236 17.3057 10.9567C17.6615 8.22117 15.9234 5.65807 13.2942 5.04133L12.4399 4.75H10.4714ZM101.892 5.15533V23.2053H106.263V15.9473H110.98V23.2053H115.276V5.15533H110.943V11.4887H106.25V5.15533H101.892ZM125.317 23.0153C127.895 22.7419 129.768 20.3822 129.5 17.745C129.419 16.9451 129.143 16.1789 128.697 15.5167C128.094 14.6843 127.347 13.9718 126.493 13.414C125.342 12.578 124.017 11.9193 122.89 11.1467C122.432 10.8553 121.962 10.4373 122.11 9.81667C122.259 9.196 122.94 9.272 123.435 9.272C124.859 9.272 126.295 9.272 127.731 9.272H128.4V5.19333C128.313 5.19333 128.251 5.11733 128.202 5.19333C126.023 5.19333 123.831 5.19333 121.665 5.33267C117.604 5.67467 116.712 10.2347 118.248 12.5527C118.921 13.5248 119.807 14.3228 120.835 14.8833C121.949 15.5673 123.064 16.2767 124.153 17.024C124.633 17.2863 124.854 17.8672 124.673 18.392C124.463 18.962 123.955 18.962 123.435 18.962H118.223H117.542V23.294C120.154 23.2053 122.767 23.2813 125.317 23.0153ZM37.5733 20.672C37.5733 19.152 37.5733 17.6193 37.5733 16.0993C37.4814 15.0613 38.2295 14.1435 39.2441 14.0495C39.5531 14.0209 39.8641 14.0724 40.1485 14.1993C40.895 14.5394 41.3441 15.3308 41.2628 16.1627V22.496C41.2628 22.724 41.2628 22.9393 41.2628 23.1673H45.0761C45.0855 23.0536 45.0855 22.9391 45.0761 22.8253C45.0761 20.4567 45.0761 18.0753 45.0761 15.7067C45.027 14.7349 44.8133 13.7791 44.4447 12.882C43.6865 10.8462 41.5547 9.71761 39.4923 10.26C38.8307 10.4732 38.1851 10.7356 37.5609 11.0453V5.15533H33.7104V23.2053H37.5733V20.672ZM58.2495 10.298C54.764 11.085 52.562 14.6137 53.3314 18.1796C53.344 18.2378 53.3573 18.296 53.3714 18.354C54.1649 21.8713 57.595 24.0645 61.0329 23.2528C61.0958 23.2379 61.1585 23.2222 61.2209 23.2053C63.6011 22.5697 65.5256 20.7807 66.3714 18.4173L63.4742 16.9987C63.0161 17.556 62.6571 18.088 62.2361 18.5187C61.5485 19.2517 60.577 19.6326 59.5866 19.5573C58.0933 19.3694 56.981 18.0562 57.0114 16.5173C56.9011 14.9517 57.974 13.5575 59.4876 13.3C60.083 13.1965 60.693 13.363 61.159 13.756L57.9276 16.074L59.4257 18.4047L65.4676 14.1993C64.2856 11.2979 61.2583 9.66163 58.2495 10.298ZM19.9676 10.5387C19.9676 13.072 19.9676 15.5293 19.9676 17.9867C20.0293 18.913 20.2825 19.8152 20.7104 20.634C21.9584 22.8435 24.4711 23.9591 26.9009 23.3827C29.2165 22.9773 30.9808 21.0373 31.2095 18.6453C31.4447 16.416 31.3457 14.1613 31.3952 11.9193V10.4373H27.5323V11.1593C27.5323 13.148 27.5323 15.1367 27.5323 17.1253C27.5368 17.4431 27.5161 17.7609 27.4704 18.0753C27.2823 19.0784 26.335 19.7356 25.3545 19.543C24.6639 19.4075 24.1128 18.8745 23.9418 18.1767C23.8656 17.8491 23.8323 17.5126 23.8428 17.176C23.8428 14.9467 23.8428 12.73 23.8428 10.4753L19.9676 10.5387ZM51.3409 5.21867H47.4533V23.2053H51.3409V5.21867ZM71.4104 12.0207C71.4352 11.6242 71.4352 11.2265 71.4104 10.83C71.4104 10.6653 71.2247 10.412 71.1133 10.412C70.0361 10.412 68.959 10.412 67.8818 10.412V23.2053H71.5961V22.3313C71.5961 20.6593 71.5961 18.9747 71.7076 17.2647C71.6908 15.7288 72.8471 14.4458 74.3447 14.3387C74.8028 14.25 75.2733 14.2247 75.7561 14.174V10.374C74.1434 10.1166 72.5214 10.7764 71.5218 12.0967L71.4104 12.0207ZM77.3285 15.1367V18.354H83.878V15.1367H77.3285Z" fill="#282828"></path> <path d="M121.162 33.1992H120.196C120.196 32.2365 120.196 31.2865 120.196 30.3492C120.227 29.9909 120.227 29.6307 120.196 29.2725C120.097 28.7785 119.824 28.3225 119.317 28.3352C118.861 28.3368 118.421 28.5078 118.079 28.8165C117.833 29.1485 117.698 29.5527 117.695 29.9692C117.695 31.0205 117.695 32.0845 117.695 33.1865H116.754V27.6385H117.522L117.608 28.3352C119.23 27.0685 119.923 27.1572 120.963 28.4492C121.313 28.1246 121.7 27.8439 122.115 27.6132C122.969 27.1855 123.999 27.5469 124.417 28.4203C124.522 28.6389 124.581 28.8773 124.591 29.1205C124.659 30.4791 124.659 31.8405 124.591 33.1992H123.687V32.0085C123.687 31.2865 123.687 30.5645 123.687 29.8552C123.687 28.8418 123.217 28.2845 122.449 28.2718C121.664 28.3232 121.069 29.0157 121.119 29.8185C121.12 29.8392 121.122 29.8598 121.124 29.8805C121.124 30.7545 121.124 31.6285 121.124 32.4898L121.162 33.1992Z" fill="#282828"></path> <path d="M32.6738 27.6261H33.4291L33.5157 28.1835C34.0832 27.8982 34.6761 27.6691 35.2862 27.4995C35.9672 27.4304 36.6116 27.827 36.871 28.4748C37.2049 28.1584 37.57 27.8782 37.9605 27.6388C38.8075 27.1976 39.8438 27.5424 40.275 28.4091C40.3527 28.5654 40.4073 28.7327 40.4367 28.9055C40.5547 29.6337 40.6044 30.3716 40.5853 31.1095C40.5853 31.8061 40.5853 32.5028 40.5853 33.2375H39.6195C39.6195 32.2875 39.6195 31.3628 39.6195 30.4255C39.6261 30.0693 39.6012 29.7131 39.5453 29.3615C39.4867 28.8072 39.0488 28.3751 38.5053 28.3355C37.9402 28.3108 37.4307 28.6809 37.2672 29.2348C37.1748 29.6501 37.1332 30.0756 37.1434 30.5015C37.1434 31.4008 37.1434 32.3128 37.1434 33.2501H36.1776V30.2988C36.1776 30.1088 36.1776 29.9188 36.1776 29.7288C36.1776 28.8168 35.6948 28.2721 35.0138 28.2721C34.2528 28.3255 33.6626 28.9736 33.6643 29.7541C33.6643 30.7548 33.6643 31.7555 33.6643 32.7435C33.6643 32.8701 33.6643 32.9968 33.6643 33.1741H32.7605L32.6738 27.6261Z" fill="#282828"></path> <path d="M48.7823 24.9785H49.748V33.1865H48.9927L48.8318 32.3885C48.3674 33.0313 47.6187 33.3929 46.8384 33.3512C46.6943 33.3641 46.5492 33.3641 46.4051 33.3512C44.9605 32.8667 44.1503 31.2987 44.5727 29.8045C44.6959 28.4111 45.9 27.3837 47.2619 27.5097C47.2693 27.5103 47.2767 27.5111 47.2842 27.5118C47.7863 27.64 48.2724 27.8271 48.7327 28.0692L48.7823 24.9785ZM48.7823 30.4378C48.8008 30.1849 48.8008 29.9308 48.7823 29.6778C48.7322 28.9722 48.2239 28.3896 47.5442 28.2592C46.8413 28.1415 46.1558 28.5506 45.9099 29.2345C45.7546 29.6383 45.6708 30.0672 45.6623 30.5012C45.6623 31.7678 46.3061 32.5785 47.2718 32.6038C48.2375 32.6292 48.8689 31.8438 48.8689 30.5392L48.7823 30.4378Z" fill="#282828"></path> <path d="M58.092 25.2194L57.8691 25.8274C55.8263 25.422 55.1329 25.9034 55.3929 27.5754H58.5129V33.174C58.3729 33.1857 58.232 33.1857 58.092 33.174H57.5844V28.3987H55.3063V33.174H54.3158V28.424L53.5605 28.2974V27.6387C54.2291 27.7274 54.291 27.3474 54.3529 26.79C54.5684 25.4651 55.793 24.5697 57.088 24.7902C57.4506 24.8519 57.7942 24.9988 58.092 25.2194Z" fill="#282828"></path> <path d="M20.8374 33.1992H19.9336V24.9912H20.8622V28.2719H21.0479C21.623 27.5463 22.6007 27.3028 23.4374 27.6765C24.2537 28.0796 24.7235 28.9744 24.6012 29.8932C24.6012 30.9825 24.6012 32.0845 24.6012 33.2245H23.6231V30.5899C23.648 30.2314 23.648 29.8717 23.6231 29.5132C23.6248 28.8136 23.0718 28.2452 22.3881 28.2434C22.3582 28.2433 22.3283 28.2444 22.2984 28.2465C21.5582 28.2971 20.9725 28.9071 20.9365 29.6652C20.9365 30.7039 20.9365 31.7425 20.9365 32.7812C20.8622 32.9332 20.8498 33.0219 20.8374 33.1992Z" fill="#282828"></path> <path d="M82.4818 30.4001C82.6056 31.9198 81.5017 33.2545 80.0163 33.3812C79.9139 33.3899 79.8111 33.3927 79.7085 33.3894C78.259 33.4146 77.0642 32.2331 77.0394 30.7502C77.038 30.6672 77.0404 30.5843 77.0466 30.5014C76.9228 28.9817 78.0267 27.647 79.5121 27.5203C79.6145 27.5116 79.7173 27.5088 79.8199 27.5121C81.2623 27.4793 82.4577 28.6489 82.4898 30.1247C82.4917 30.2165 82.4891 30.3085 82.4818 30.4001ZM81.4666 30.4001C81.4666 28.9688 80.6494 28.0441 79.498 28.2088C78.4835 28.4542 77.8286 29.4621 77.9999 30.5141C77.8989 31.5585 78.6391 32.4911 79.659 32.6041C80.6247 32.6041 81.3428 31.7934 81.4171 30.5521L81.4666 30.4001Z" fill="#282828"></path> <path d="M30.9524 33.1993H30.2343L30.061 32.528C29.6949 32.8069 29.3005 33.0447 28.8848 33.2373C27.9993 33.6448 26.9585 33.2409 26.5601 32.3348C26.4727 32.136 26.4213 31.9224 26.4086 31.7047C26.3404 30.3502 26.3404 28.9931 26.4086 27.6387H27.2381V30.2607C27.2131 30.598 27.2131 30.9367 27.2381 31.274C27.3495 32.1227 27.7705 32.5407 28.4762 32.5407C29.2189 32.5557 29.8413 31.9693 29.8876 31.2107C29.8876 30.2987 29.8876 29.3867 29.8876 28.4747V27.664H30.9524V33.1993Z" fill="#282828"></path> <path d="M69.3319 33.1995H68.6014L68.4652 32.7562C67.9238 33.0028 67.3597 33.1938 66.7814 33.3262C66.0301 33.4589 65.3025 32.9883 65.0976 32.2369C64.8209 31.4636 65.1499 30.6003 65.8652 30.2229C66.4789 29.9823 67.1131 29.7999 67.7595 29.6782C67.9366 29.6595 68.1148 29.6595 68.2919 29.6782C68.4405 28.3229 67.6976 28.0189 65.6795 28.5509C65.3205 28.1329 65.4814 27.8415 65.9519 27.7529C66.554 27.6228 67.1692 27.5676 67.7843 27.5882C68.7142 27.6753 69.4035 28.5103 69.3319 29.4629C69.3319 30.6789 69.3319 31.9075 69.3319 33.1995ZM68.2795 30.2482C67.683 30.3597 67.0953 30.5162 66.5214 30.7169C66.0563 30.9403 65.8523 31.5042 66.0633 31.9835C66.2119 32.5282 66.6328 32.6675 67.1405 32.6169C68.0938 32.5282 68.5395 31.6669 68.23 30.2482H68.2795Z" fill="#282828"></path> <path d="M88.5107 33.1994H87.5202V30.7801C87.5202 30.4254 87.5202 30.0581 87.5202 29.7034C87.4583 28.8167 87.0126 28.3101 86.2821 28.2847C85.4959 28.2631 84.8365 28.8872 84.7964 29.6907C84.7964 30.3747 84.7964 31.0461 84.7964 31.7301V33.1741H83.8555V27.6514H84.5859L84.7345 28.2974C85.1207 28.0153 85.5358 27.7774 85.9726 27.5881C86.947 27.1984 88.0457 27.6908 88.4264 28.6878C88.4903 28.8551 88.5311 29.0307 88.5478 29.2094C88.5725 29.5044 88.5725 29.8011 88.5478 30.0961L88.5107 33.1994Z" fill="#282828"></path> <path d="M97.0538 35.7958L96.8681 35.1878C97.4012 34.6986 97.8978 34.1694 98.3538 33.6045C98.527 33.2871 98.5586 32.9087 98.4405 32.5658C97.9205 31.1345 97.3386 29.7411 96.7815 28.3225C96.6948 28.1198 96.6329 27.9045 96.5586 27.6765C97.5367 27.5118 97.5367 27.4991 97.7967 28.3351L99.1462 32.0338C99.3938 31.2738 99.6167 30.6278 99.8272 29.9691C100.038 29.3105 100.186 28.8925 100.372 28.3478C100.657 27.4991 100.657 27.4991 101.721 27.7018C100.768 29.9565 99.8519 32.1985 98.8491 34.4025C98.5039 35.1347 97.8361 35.6529 97.0538 35.7958Z" fill="#282828"></path> <path d="M115.354 30.59H111.515C111.515 32.3127 112.679 32.908 114.821 32.3633C115.168 32.9207 115.143 33.0347 114.574 33.1867C114.273 33.2629 113.966 33.3137 113.657 33.3387C112.168 33.6031 110.752 32.5827 110.493 31.0594C110.417 30.6105 110.449 30.1493 110.587 29.716C110.784 28.282 112.08 27.2831 113.482 27.4849C113.512 27.4892 113.541 27.494 113.571 27.4993C114.796 27.702 115.539 28.9053 115.354 30.59ZM111.553 29.8553H114.375C114.547 29.1276 114.109 28.3955 113.398 28.2201C113.313 28.199 113.225 28.1866 113.137 28.1833C112.29 28.1536 111.579 28.8321 111.55 29.699C111.549 29.7512 111.549 29.8033 111.553 29.8553Z" fill="#282828"></path> <path d="M23.6607 6.54852C23.6743 7.60479 22.8485 8.47233 21.8161 8.48626C20.7836 8.5002 19.9357 7.65533 19.922 6.59906C19.9084 5.54279 20.7342 4.67525 21.7667 4.66131C21.7789 4.66119 21.7913 4.66106 21.8036 4.66119C22.8189 4.67461 23.6408 5.50985 23.6607 6.54852Z" fill="#2E528B"></path> <path d="M73.4188 32.5281C73.6416 33.0854 73.4188 33.3134 72.8988 33.3514C72.1237 33.5242 71.3586 33.0214 71.1898 32.2285C71.1568 32.0732 71.1485 31.9134 71.1655 31.7554C71.1655 30.8687 71.1655 29.9821 71.1655 29.0954V28.3987L70.3359 28.3101V27.6514L71.1159 27.5501C71.3016 26.9547 70.8064 25.8781 72.1312 26.0681V27.5627H73.555V28.2721H72.1931C72.1931 29.5387 72.1188 30.7294 72.1931 31.9074C72.2674 32.6674 72.9359 32.5027 73.4188 32.5281Z" fill="#282828"></path> <path d="M102.205 32.9335L102.428 32.3508C102.944 32.4552 103.464 32.5312 103.988 32.5788C104.402 32.6244 104.778 32.3288 104.842 31.9075C104.933 31.4953 104.718 31.0769 104.335 30.9195C103.963 30.7295 103.567 30.5901 103.208 30.3875C102.656 30.1448 102.317 29.5687 102.366 28.9561C102.417 28.2963 102.876 27.7447 103.505 27.5881C104.199 27.3514 104.959 27.425 105.597 27.7908L105.424 28.3861C104.989 28.2877 104.545 28.241 104.099 28.2468C103.778 28.3258 103.51 28.5494 103.369 28.8548C103.369 29.0701 103.555 29.4755 103.79 29.6528C104.143 29.8719 104.516 30.0543 104.904 30.1975C105.559 30.4817 105.934 31.1915 105.808 31.9075C105.704 32.5582 105.206 33.0682 104.57 33.1741C103.781 33.4162 102.931 33.3297 102.205 32.9335Z" fill="#282828"></path> <path d="M64.1718 27.8667L63.9985 28.5254C62.8842 28.2087 61.8442 28.1201 61.1509 29.2474C60.7096 30.0393 60.7382 31.0173 61.2252 31.7807C61.7575 32.5407 62.4633 32.7054 63.9985 32.3507L64.1718 32.9714C62.9542 33.6613 61.4368 33.4388 60.4575 32.4267C59.6444 31.2967 59.6444 29.7567 60.4575 28.6267C61.3772 27.5292 62.9103 27.2155 64.1718 27.8667Z" fill="#282828"></path> <path d="M92.2891 32.9334L92.4748 32.3127C92.9357 32.4256 93.403 32.5102 93.8738 32.5661C94.341 32.673 94.8043 32.3721 94.9087 31.8942C94.9106 31.886 94.9122 31.8776 94.9138 31.8694C95.0129 31.3374 94.6786 31.0461 94.2576 30.8434C93.8367 30.6407 93.5272 30.5267 93.1929 30.3241C92.6688 30.0669 92.3645 29.4953 92.4376 28.9054C92.4894 28.318 92.8794 27.8194 93.4281 27.6387C94.1552 27.3582 94.9643 27.4041 95.6567 27.7654L95.4834 28.3987C95.0801 28.2864 94.663 28.2352 94.2453 28.2467C93.9035 28.3134 93.6111 28.5378 93.4529 28.8547C93.3786 29.0574 93.6757 29.4881 93.911 29.6781C94.2685 29.8915 94.6409 30.0778 95.0253 30.2354C95.634 30.5122 95.9882 31.1697 95.8919 31.8441C95.8221 32.5333 95.319 33.0943 94.6538 33.2247C93.858 33.4379 93.0127 33.3338 92.2891 32.9334Z" fill="#282828"></path> <path d="M126.199 32.3505C126.676 32.4636 127.16 32.544 127.648 32.5912C128.105 32.6796 128.545 32.3723 128.632 31.9049C128.712 31.4708 128.458 31.0451 128.044 30.9192C127.673 30.7292 127.276 30.5898 126.917 30.3745C126.37 30.1187 126.049 29.5285 126.125 28.9178C126.193 28.3165 126.608 27.8165 127.177 27.6512C127.896 27.3836 128.693 27.4532 129.356 27.8412L129.171 28.4365C128.742 28.327 128.3 28.2759 127.858 28.2845C127.535 28.3492 127.26 28.5648 127.115 28.8672C127.136 29.2031 127.299 29.513 127.561 29.7158C127.917 29.93 128.289 30.1123 128.675 30.2605C129.288 30.53 129.655 31.1787 129.579 31.8565C129.54 32.5619 129.024 33.1432 128.341 33.2498C127.771 33.3384 127.191 33.3384 126.62 33.2498C125.915 33.0978 125.902 32.9965 126.199 32.3505Z" fill="#282828"></path> <path d="M14.6343 33.1995H13.6934V27.6515H14.4238L14.5353 28.5888C14.9934 27.8795 15.4762 27.3222 16.3429 27.5122V28.3355C15.0305 28.5762 14.6343 29.0448 14.6343 30.4002C14.6219 31.2995 14.6343 32.2115 14.6343 33.1995Z" fill="#282828"></path> <path d="M10.9941 27.626H11.8732V33.174H10.9941V27.626Z" fill="#282828"></path> <path d="M43.2228 33.1993H42.3066V27.6387H43.2228V33.1993Z" fill="#282828"></path> <path d="M52.4207 33.1994H51.5293V27.6514H52.4207V33.1994Z" fill="#282828"></path> <path d="M75.6981 33.1994H74.8066V27.6514H75.6981V33.1994Z" fill="#282828"></path> <path d="M108.433 31.8821C108.433 30.7295 108.433 29.5768 108.433 28.3355H109.819C109.819 28.0441 109.819 27.8541 109.819 27.6008C109.497 27.6008 109.237 27.6008 108.965 27.6008C108.693 27.6008 108.383 27.4868 108.408 27.0815V26.9421C108.408 26.6635 108.408 26.3595 108.408 25.9668H107.467V26.4355C107.454 26.5151 107.454 26.5965 107.467 26.6761C107.479 26.8067 107.479 26.9382 107.467 27.0688C107.467 27.4488 107.207 27.6768 106.625 27.5881V28.2595L107.455 28.3608V29.1335C107.455 30.0455 107.455 30.9575 107.455 31.8568C107.455 32.7561 108.049 33.4148 109.114 33.3515C109.795 33.3515 109.844 33.2375 109.658 32.5535C108.705 32.5155 108.457 32.4268 108.433 31.8821Z" fill="#282828"></path> <path d="M31.233 6.54852C31.2466 7.60479 30.4208 8.47233 29.3883 8.48626C28.3559 8.5002 27.5079 7.65533 27.4943 6.59906C27.4807 5.54279 28.3065 4.67525 29.3389 4.66131C29.3512 4.66119 29.3636 4.66106 29.3758 4.66119C30.3912 4.67461 31.213 5.50985 31.233 6.54852Z" fill="#2E528B"></path> </svg> 